<?xml version="1.0" encoding="utf-8"?>
<!-- Generator: Adobe Illustrator 17.1.0, SVG Export Plug-In . SVG Version: 6.00 Build 0)  -->
<!DOCTYPE svg PUBLIC "-//W3C//DTD SVG 1.1//EN" "http://www.w3.org/Graphics/SVG/1.1/DTD/svg11.dtd">
<svg version="1.1" id="Layer_1" xmlns="http://www.w3.org/2000/svg" xmlns:xlink="http://www.w3.org/1999/xlink" x="0px" y="0px"
	 viewBox="0 0 1400 2800" enable-background="new 0 0 1400 2800" xml:space="preserve">
<path fill="none" d="M708.16,1376.705c5.336,0,9.661-4.318,9.661-9.643c0-5.326-4.325-9.643-9.661-9.643
	c-5.335,0-9.661,4.318-9.661,9.643C698.499,1372.388,702.825,1376.705,708.16,1376.705z"/>
<path fill="none" d="M730.479,1413.539l-6.921-28.601c-0.385-1.59-1.507-2.761-2.796-3.115c-4.134-3.181-8.275-4.344-12.014-4.424
	c-0.197-0.01-0.39-0.029-0.59-0.029c-0.445,0-0.882,0.032-1.314,0.082c-5.748,0.421-10.28,3.158-11.904,4.271
	c-1.342,0.328-2.509,1.558-2.876,3.214l-6.362,28.73c-0.485,2.195,0.614,4.301,2.455,4.707c1.842,0.406,3.728-1.042,4.214-3.235
	l4.712-21.277v15.054c0,0.941,0.139,1.848,0.375,2.717v42.964c0,2.666,1.865,4.826,4.164,4.826c2.299,0,4.164-2.16,4.164-4.826
	v-35.247c0.765,0.161,1.557,0.252,2.372,0.252c0.669,0,1.321-0.067,1.958-0.177v35.172c0,2.666,1.865,4.826,4.164,4.826
	c2.299,0,4.164-2.16,4.164-4.826v-41.732c0.505-1.223,0.79-2.552,0.79-3.948v-12.806l4.604,19.029
	c0.529,2.184,2.443,3.595,4.276,3.153C729.95,1417.851,731.008,1415.724,730.479,1413.539z"/>
<path fill="none" d="M746.012,1406.052l-10.494,28.099h38.227l-10.494-29.18"/>
<path fill="none" d="M758.302,1378.395c3.558-1.334,6.095-4.752,6.095-8.77c0-5.178-4.205-9.376-9.392-9.376
	c-5.188,0-9.393,4.198-9.393,9.376c0,4.019,2.538,7.437,6.098,8.771c0.721-0.819,1.927-1.357,3.297-1.357
	C756.375,1377.038,757.582,1377.576,758.302,1378.395"/>
<path fill="none" d="M776.705,1414.812l-6.729-27.807c-0.374-1.546-1.465-2.684-2.718-3.028c-2.797-2.152-5.594-3.339-8.264-3.897
	l0.01,0.077c0,1.722-1.79,3.117-3.997,3.117c-2.208,0-3.998-1.396-3.998-3.117l0.006-0.044c-4.277,0.881-7.549,2.868-8.862,3.768
	c-1.304,0.32-2.439,1.515-2.796,3.125l-6.186,27.932c-0.472,2.134,0.597,4.182,2.387,4.577c1.79,0.395,3.625-1.013,4.096-3.146
	l5.108-23.618l1.749,16.959c0,0.914-2.141,2.405-1.912,3.25v41.772c0,2.591,1.813,4.692,4.049,4.692c2.236,0,4.049-2.1,4.049-4.692
	v-34.27c0.744,0.157,1.514,0.245,2.307,0.245c0.65,0,1.284-0.065,1.903-0.172v34.197c0,2.591,1.813,4.692,4.049,4.692
	c2.235,0,4.048-2.1,4.048-4.692v-40.574c0.49-1.189-2.254-3.589-2.254-4.947L766,1393l4.25,23.368
	c0.515,2.124,2.375,3.495,4.158,3.066C776.19,1419.005,777.219,1416.936,776.705,1414.812"/>
<path fill="none" d="M758.302,1378.395c-1.027,0.385-2.135,0.606-3.297,0.606c-1.161,0-2.269-0.22-3.295-0.605l0,0l0,0
	c-0.43,0.49-0.683,1.079-0.695,1.716c0.866-0.178,1.771-0.315,2.712-0.384c0.419-0.048,0.844-0.08,1.278-0.08
	c0.193,0,0.382,0.018,0.573,0.028c1.105,0.023,2.25,0.16,3.417,0.404C758.974,1379.455,758.726,1378.876,758.302,1378.395
	L758.302,1378.395L758.302,1378.395"/>
<path fill="none" d="M758.302,1378.395c-0.721-0.818-1.927-1.356-3.296-1.356c-1.369,0-2.576,0.538-3.297,1.357
	c1.027,0.385,2.134,0.605,3.295,0.605C756.167,1379.001,757.275,1378.78,758.302,1378.395z"/>
<path fill="none" d="M748.76,1375.209c0.256,2.08-1.891,3.649-5.163,2.494c2.48-1.463,1.205-4.33,1.332-6.817
	c0.141-2.766,0.655-5.117,2.498-7.316c3.226-3.848,10.934-5.485,15.824,0.831c2.832,3.658-0.122,11.839,4.331,11.805
	c-2.319,2.627-5.225,1.951-5.997-0.997"/>
<path fill="none" d="M797.75,1398.806c3.907,0,7.074-3.215,7.074-7.184c0-3.968-3.167-7.184-7.074-7.184
	c-3.907,0-7.074,3.217-7.074,7.184C790.675,1395.591,793.842,1398.806,797.75,1398.806z"/>
<path fill="none" d="M814.093,1426.243l-5.068-21.305c-0.282-1.184-1.104-2.057-2.047-2.319c-3.027-2.37-6.059-3.237-8.797-3.297
	c-0.144-0.006-0.286-0.02-0.432-0.02c-0.326,0-0.646,0.025-0.962,0.06c-4.209,0.314-7.528,2.352-8.718,3.184
	c-0.982,0.243-1.837,1.158-2.106,2.392l-4.659,21.402c-0.355,1.636,0.45,3.204,1.798,3.506c1.349,0.304,2.73-0.773,3.085-2.41
	l3.45-15.85v11.216c0,0.7,0.102,1.375,0.275,2.024v32.005c0,1.985,1.366,3.595,3.049,3.595c1.684,0,3.05-1.61,3.05-3.595v-26.257
	c0.56,0.119,1.14,0.187,1.737,0.187c0.49,0,0.967-0.05,1.434-0.131v26.201c0,1.985,1.365,3.595,3.049,3.595
	c1.684,0,3.049-1.61,3.049-3.595v-31.087c0.37-0.912,0.579-1.902,0.579-2.942v-9.541l3.372,14.176
	c0.387,1.627,1.789,2.679,3.131,2.35C813.705,1429.455,814.48,1427.87,814.093,1426.243z"/>
</svg>
